<?xml version="1.0" encoding="utf-8"?>
<!-- Generator: Adobe Illustrator 21.0.0, SVG Export Plug-In . SVG Version: 6.00 Build 0)  -->
<svg version="1.1" id="Layer_1" xmlns="http://www.w3.org/2000/svg" xmlns:xlink="http://www.w3.org/1999/xlink" x="0px" y="0px"
	 viewBox="0 0 48 50" style="enable-background:new 0 0 48 50;" xml:space="preserve">
<style type="text/css">
	.st0{fill:#606060;}
	.st1{fill:none;}
	.st2{fill:#FFFFFF;}
</style>
<path class="st0" d="M45.9,24.4c0.8-0.9,0.7-2.3-0.2-3.1L25.5,3.6c-0.9-0.8-2.4-0.8-3.3,0L1.9,22.2C1,23,0.9,24.4,1.8,25.3l0.5,0.5
	c0.8,0.9,2.2,1,3,0.2l1.5-1.4v19.9c0,1.2,1,2.2,2.2,2.2H17c1.2,0,2.2-1,2.2-2.2V30.7h10.1v13.9c0,1.2,0.9,2.2,2.1,2.2h8.4
	c1.2,0,2.2-1,2.2-2.2V25c0,0,0.4,0.4,0.9,0.8c0.5,0.5,1.6,0.1,2.4-0.8L45.9,24.4z M45.9,24.4"/>
<polygon class="st0" points="17,46.8 33.7,46.8 32.3,26 14.7,27.2 "/>
<path class="st2" d="M15.7,27c0.2-0.6,0.4-1.1,0.6-1.6c1.7-4,5.8-6.4,10.1-5.9c4.3,0.5,8,4.1,8.6,8.4c0.6,5-2.5,9.6-7.4,10.9
	c-4,1-8.4-0.8-10.7-4.5c-0.4-0.6-0.9-0.9-1.4-0.6c-0.7,0.3-0.9,1-0.5,1.7c1.1,1.7,2.5,3.2,4.2,4.2c2.1,1.2,4.4,1.8,6.8,1.7
	c4.5-0.2,8.9-3.4,10.4-7.7c1.6-4.3,1-8.3-1.9-11.9c-2-2.5-4.5-3.9-7.7-4.3c-4.6-0.5-8.3,1.1-11.2,4.7c-1,1.3-1.7,2.7-2,4.3
	c-0.1,0.5-0.3,0.7-0.8,0.6c-0.3,0-0.6-0.1-0.9,0c-0.2,0.1-0.5,0.2-0.6,0.4c-0.1,0.1,0,0.5,0.1,0.6c0.8,1,1.6,2,2.5,3
	c0.4,0.5,0.7,0.5,1.1,0c0.8-1,1.7-2,2.5-3c0.1-0.2,0.2-0.5,0.1-0.7c-0.1-0.2-0.4-0.3-0.6-0.3C16.7,26.9,16.3,27,15.7,27z"/>
<path class="st2" d="M24.2,24.9c0-1,0-1.9,0-2.9c0-0.6,0.5-1,1.2-1c0.6,0,1,0.4,1,1.1c0,1.8,0,3.6,0,5.3c0,0.3,0.1,0.6,0.3,0.9
	c0.6,0.5,0.6,1.4,0.2,2.1c-0.4,0.6-1.3,0.9-2.1,0.8c-0.2,0-0.5,0-0.7,0.1c-1.1,0.5-2.2,1.2-3.3,1.7c-0.3,0.1-0.7,0.2-1,0.2
	c-0.4-0.1-0.7-0.4-0.7-0.8c-0.1-0.4,0.2-0.8,0.6-1c1-0.5,2-1.1,3-1.6c0.4-0.2,0.8-0.4,0.9-0.9c0-0.2,0.3-0.4,0.4-0.6
	c0.1-0.2,0.2-0.3,0.2-0.5C24.2,26.8,24.2,25.8,24.2,24.9C24.2,24.9,24.2,24.9,24.2,24.9z M25.3,30.2c0.5,0,0.9-0.3,0.8-0.8
	c0-0.4-0.4-0.7-0.8-0.7c-0.5,0-0.8,0.3-0.9,0.7C24.5,29.9,24.8,30.2,25.3,30.2z"/>
<circle class="st2" cx="25.6" cy="29.5" r="1.3"/>
</svg>
