<?xml version="1.0" encoding="utf-8"?>
<!-- Generator: Adobe Illustrator 21.0.0, SVG Export Plug-In . SVG Version: 6.00 Build 0)  -->
<svg version="1.1" id="Layer_1" xmlns="http://www.w3.org/2000/svg" xmlns:xlink="http://www.w3.org/1999/xlink" x="0px" y="0px"
	 viewBox="0 0 48 50" style="enable-background:new 0 0 48 50;" xml:space="preserve">
<style type="text/css">
	.st0{fill:#606060;}
	.st1{fill:none;}
	.st2{fill:#FFFFFF;}
</style>
<g>
	<path class="st0" d="M2.4,14.2v30c0,1.5,1.2,2.6,2.6,2.6h17.5V11.5H5C3.6,11.5,2.4,12.7,2.4,14.2L2.4,14.2z M5.9,24.4l5.3-5.3
		c0.3-0.3,0.7-0.4,1.1-0.4c0.4,0,0.8,0.2,1.1,0.4l5.3,5.3c0.3,0.3,0.4,0.7,0.4,1.1c0,0.4-0.1,0.8-0.4,1.1c-0.6,0.6-1.5,0.6-2.1,0
		l-2.8-2.8v15.8c0,0.8-0.7,1.5-1.5,1.5c-0.8,0-1.5-0.7-1.5-1.5V23.7L8,26.5c-0.6,0.6-1.5,0.6-2.1,0C5.3,25.9,5.3,25,5.9,24.4
		L5.9,24.4z M5.9,24.4"/>
	<path class="st0" d="M43,11.5H25.5v35.3H43c1.5,0,2.6-1.2,2.6-2.6v-30C45.6,12.7,44.5,11.5,43,11.5L43,11.5z M42.2,35.3L37,40.5
		c-0.3,0.3-0.7,0.4-1.1,0.4c-0.4,0-0.8-0.2-1.1-0.4l-5.3-5.3c-0.6-0.6-0.6-1.5,0-2.1c0.6-0.6,1.5-0.6,2.1,0l2.8,2.8V20.1
		c0-0.8,0.7-1.5,1.5-1.5c0.8,0,1.5,0.7,1.5,1.5V36l2.8-2.8c0.6-0.6,1.5-0.6,2.1,0c0.3,0.3,0.4,0.7,0.4,1.1
		C42.6,34.6,42.4,35,42.2,35.3L42.2,35.3z M42.2,35.3"/>
	<path class="st0" d="M24.2,2.3c-3.7,0-6.7,3-6.7,6.7H31C30.9,5.3,27.9,2.3,24.2,2.3L24.2,2.3z M24.2,2.3"/>
</g>
</svg>
