<?xml version="1.0" encoding="utf-8"?>
<!-- Generator: Adobe Illustrator 19.0.0, SVG Export Plug-In . SVG Version: 6.00 Build 0)  -->
<svg version="1.1" id="Capa_1" xmlns="http://www.w3.org/2000/svg" xmlns:xlink="http://www.w3.org/1999/xlink" x="0px" y="0px"
	 viewBox="0 0 50.8 47.6" style="enable-background:new 0 0 50.8 47.6;" xml:space="preserve">
<style type="text/css">
	.st0{fill:#606060;}
</style>
<g id="XMLID_8_">
	<g id="XMLID_72_">
		<g id="XMLID_73_">
			<path id="XMLID_79_" class="st0" d="M12.8,43.1c2-0.4,3.3-2.2,4-4h-1c-0.4,0-0.9,0-1.3,0c-0.4,0.9-1.1,1.7-2.1,1.9
				c-0.3-0.3-0.7-0.4-1.2-0.4c-1,0-1.8,0.8-1.8,1.8s0.8,1.8,1.8,1.8C11.9,44.1,12.5,43.7,12.8,43.1z"/>
			<path id="XMLID_78_" class="st0" d="M40.6,44.1c1,0,1.8-0.8,1.8-1.8s-0.8-1.8-1.8-1.8c-0.4,0-0.8,0.1-1,0.3
				c-0.9-0.3-1.5-1-1.9-1.9c-0.7,0.1-1.2,0.2-1.7,0.2h-0.1h-0.1h-0.6c0.6,1.7,1.8,3.4,3.8,3.9C39.2,43.6,39.9,44.1,40.6,44.1z"/>
			<path id="XMLID_77_" class="st0" d="M37.7,10L34,6.3c-0.7,0.2-2.7,1.5-3.3,2.1l4.9,4.9C36.2,12.7,37.5,10.7,37.7,10z"/>
			<path id="XMLID_74_" class="st0" d="M46.1,20.9H45h-1.1V4.2c0-0.4-0.3-0.7-0.7-0.7h-3.2c-0.2,0-0.4,0.1-0.5,0.2L37,6.1
				c-0.6-0.2-1.3,0.1-1.7,0.2l2.5,2.5c0.2-0.5,0.3-1.1,0.2-1.7l2.4-2.2h2.1v16H5.8H4.7c-0.8,0-1.5,0.7-1.5,1.5v1.5
				c0,0.8,0.7,1.5,1.5,1.5h0.2h0.3h0.4c0.1,0.6,0.3,1.2,0.4,2l1,4.9c1.4,5.3,4.3,6.1,7.7,6.2c0.3,0,0.7,0,1,0h1.3l17.8,0
				c0,0,0,0,0,0c0,0,0,0,0,0h1c0.4,0,0.9,0,1.4-0.1l0,0c2.2-0.3,5.1-1.6,6.5-5.8l1.7-7.2h0.4h0.2c0,0,0.1,0,0.1,0
				c0.7-0.1,1.3-0.7,1.3-1.4v-1.5C47.6,21.6,46.9,20.9,46.1,20.9z M34.5,36.1L34.5,36.1C34.5,36.1,34.5,36.1,34.5,36.1
				C34.5,36.1,34.5,36.1,34.5,36.1z"/>
		</g>
	</g>
</g>
</svg>
