<?xml version="1.0" encoding="utf-8"?>
<!-- Generator: Adobe Illustrator 19.0.0, SVG Export Plug-In . SVG Version: 6.00 Build 0)  -->
<svg version="1.1" id="Capa_1" xmlns="http://www.w3.org/2000/svg" xmlns:xlink="http://www.w3.org/1999/xlink" x="0px" y="0px"
	 viewBox="0 0 50.8 47.6" style="enable-background:new 0 0 50.8 47.6;" xml:space="preserve">
<style type="text/css">
	.st0{fill:#606060;}
</style>
<g id="XMLID_9_">
	<g id="XMLID_59_">
		<path id="XMLID_63_" class="st0" d="M7.2,18.6c0-2.6,2.1-4.7,4.7-4.7h10.5c1.6,0,3.1,0.8,3.9,2.1c0.8-1.3,2.3-2.1,3.9-2.1h10.5
			c2.6,0,4.7,2.1,4.7,4.7v0.2h1.2v-4.5c0-2.8-2.3-5.1-5.1-5.1H11.1C8.3,9.1,6,11.4,6,14.2v4.5h1.2L7.2,18.6L7.2,18.6z"/>
		<path id="XMLID_62_" class="st0" d="M48.9,21H3.6c-1.1,0-2,0.9-2,2v11.4c0,1.1,0.9,2,2,2h0.8l-1,2.7c-0.2,0.6,0.1,1.2,0.7,1.4
			c0.1,0,0.2,0.1,0.4,0.1c0.4,0,0.9-0.3,1-0.7l1.2-3.4h39.1l1.2,3.4c0.2,0.4,0.6,0.7,1,0.7c0.1,0,0.2,0,0.4-0.1
			c0.6-0.2,0.9-0.8,0.7-1.4l-1-2.7h0.8c1.1,0,2-0.9,2-2V22.9C50.8,21.8,50,21,48.9,21z"/>
		<path id="XMLID_61_" class="st0" d="M30.1,16.1c-1.4,0-2.5,1.1-2.5,2.5v0.2h15.4v-0.2c0-1.4-1.1-2.5-2.5-2.5H30.1z"/>
		<path id="XMLID_60_" class="st0" d="M11.9,16.1c-1.4,0-2.5,1.1-2.5,2.5v0.2h15.4v-0.2c0-1.4-1.1-2.5-2.5-2.5H11.9z"/>
	</g>
</g>
</svg>
