<?xml version="1.0" encoding="utf-8"?>
<!-- Generator: Adobe Illustrator 21.0.0, SVG Export Plug-In . SVG Version: 6.00 Build 0)  -->
<svg version="1.1" id="Layer_1" xmlns="http://www.w3.org/2000/svg" xmlns:xlink="http://www.w3.org/1999/xlink" x="0px" y="0px"
	 viewBox="0 0 48 50" style="enable-background:new 0 0 48 50;" xml:space="preserve">
<style type="text/css">
	.st0{fill:#606060;}
	.st1{fill:none;}
	.st2{fill:#FFFFFF;}
</style>
<path class="st0" d="M46,24c0.8-0.9,0.7-2.3-0.2-3.1L25.6,3.2c-0.9-0.8-2.4-0.8-3.3,0L2,21.9c-0.9,0.8-0.9,2.2-0.1,3.1l0.5,0.5
	c0.8,0.9,2.2,1,3,0.2L7,24.4v19.9c0,1.2,1,2.2,2.2,2.2h7.9c1.2,0,2.2-1,2.2-2.2V30.3h10.1v13.9c0,1.2,0.9,2.2,2.1,2.2h8.4
	c1.2,0,2.2-1,2.2-2.2V24.6c0,0,0.4,0.4,0.9,0.8c0.5,0.5,1.6,0.1,2.4-0.8L46,24z M46,24"/>
<rect x="1.3" y="2.7" class="st1" width="46.2" height="44"/>
<polygon class="st0" points="17.1,46.5 33.9,46.5 32.4,25.7 14.9,26.8 "/>
<path class="st2" d="M25.8,25.9h-2.9c-1.6,0-3-1.3-3-3c0-1.6,1.3-3,3-3h5.7c0.7,0,1.3-0.6,1.3-1.3c0-0.7-0.6-1.3-1.3-1.3h-3v-3
	c0-0.7-0.6-1.3-1.3-1.3c-0.7,0-1.3,0.6-1.3,1.3v3h-0.1c-3.1,0-5.6,2.5-5.6,5.6s2.5,5.6,5.6,5.6h2.9c1.6,0,3,1.3,3,3s-1.3,3-3,3h-5.7
	c-0.7,0-1.3,0.6-1.3,1.3c0,0.7,0.6,1.3,1.3,1.3h3v3c0,0.7,0.6,1.3,1.3,1.3c0.7,0,1.3-0.6,1.3-1.3v-3h0.1c3.1,0,5.6-2.5,5.6-5.6
	S28.9,25.9,25.8,25.9z"/>
</svg>
