<?xml version="1.0" encoding="utf-8"?>
<!-- Generator: Adobe Illustrator 21.0.0, SVG Export Plug-In . SVG Version: 6.00 Build 0)  -->
<svg version="1.1" id="Layer_1" xmlns="http://www.w3.org/2000/svg" xmlns:xlink="http://www.w3.org/1999/xlink" x="0px" y="0px"
	 viewBox="0 0 48 50" style="enable-background:new 0 0 48 50;" xml:space="preserve">
<style type="text/css">
	.st0{fill:#606060;}
	.st1{fill:none;}
	.st2{fill:#FFFFFF;}
</style>
<path class="st0" d="M44.3,12.2h-41c-0.7,0-1.3,0.6-1.3,1.3v23.7c0,0.7,0.6,1.3,1.3,1.3h41c0.7,0,1.3-0.6,1.3-1.3V13.5
	C45.6,12.8,45.1,12.2,44.3,12.2L44.3,12.2z M11.2,18.6v5.2H9.6v-6L11.2,18.6z M11.2,26.4v5.8l-1.6,0.8v-6.5H11.2z M7,23.8H4.7v-8.2
	L7,16.6V23.8z M4.7,26.4H7v7.7l-2.3,1.1V26.4z M13,34.1c0.5-0.2,0.7-0.7,0.7-1.2V17.8c0-0.5-0.3-1-0.7-1.2l-4-1.8h29.5l-4,1.8
	c-0.5,0.2-0.7,0.7-0.7,1.2V33c0,0.5,0.3,1,0.7,1.2l4,1.8H9.1L13,34.1z M43,23.8h-2.5v-7.1l2.5-1.1V23.8z M36.5,26.4h1.5v6.5
	l-1.5-0.7V26.4z M36.5,23.8v-5.2l1.5-0.7v5.9H36.5z M40.5,26.4H43v8.8L40.5,34V26.4z M40.5,26.4"/>
</svg>
