<?xml version="1.0" encoding="utf-8"?>
<!-- Generator: Adobe Illustrator 21.0.0, SVG Export Plug-In . SVG Version: 6.00 Build 0)  -->
<svg version="1.1" id="Layer_1" xmlns="http://www.w3.org/2000/svg" xmlns:xlink="http://www.w3.org/1999/xlink" x="0px" y="0px"
	 viewBox="0 0 48 50" style="enable-background:new 0 0 48 50;" xml:space="preserve">
<style type="text/css">
	.st0{fill:#606060;}
	.st1{fill:none;}
	.st2{fill:#FFFFFF;}
</style>
<g>
	<path class="st0" d="M37.6,26.7c-0.2,0-0.4,0-0.5,0.1l-1,0.3l-1.3-3.2c-0.6-1.5-2.4-2.7-4-2.7H17.1c-1.6,0-3.4,1.2-4,2.7l-1.3,3.2
		l-1-0.3c-0.2-0.1-0.4-0.1-0.5-0.1c-1,0-1.7,0.7-1.7,1.8v0c0,1.1,0.8,1.9,1.8,2.1c-0.5,1.4-1,3.6-1,5.1v6.6c0,1.2,1,2.2,2.2,2.2h1.2
		c1.2,0,2.2-1,2.2-2.2v-1.4h17.9v1.4c0,1.2,1,2.2,2.2,2.2h1.2c1.2,0,2.2-1,2.2-2.2v-6.6c0-1.4-0.4-3.7-1-5.1c1-0.2,1.8-1.1,1.8-2.1
		v0C39.2,27.5,38.5,26.7,37.6,26.7L37.6,26.7z M13.2,29.3l2.1-5.1c0.4-0.9,1.4-1.6,2.4-1.6h12.5c0.9,0,2,0.7,2.4,1.6l2.1,5.1
		c0.4,0.9-0.1,1.6-1.1,1.6H14.3C13.4,30.9,12.9,30.2,13.2,29.3L13.2,29.3z M18.5,36.9c0,0.5-0.4,0.9-0.9,0.9h-4.1
		c-0.5,0-0.9-0.4-0.9-0.9v-1.8c0-0.5,0.4-0.9,0.9-0.9h4.1c0.5,0,0.9,0.4,0.9,0.9V36.9z M35.2,36.9c0,0.5-0.4,0.9-0.9,0.9h-4.1
		c-0.5,0-0.9-0.4-0.9-0.9v-1.8c0-0.5,0.4-0.9,0.9-0.9h4.1c0.5,0,0.9,0.4,0.9,0.9V36.9z M35.2,36.9"/>
	<path class="st0" d="M42.4,4.8h-37c-2.2,0-4,1.8-4,4v34c0,1.2,1,2.2,2.2,2.2c1.2,0,2.2-1,2.2-2.2V19.1H42v23.8c0,1.2,1,2.2,2.2,2.2
		c1.2,0,2.2-1,2.2-2.2v-34C46.5,6.7,44.7,4.8,42.4,4.8L42.4,4.8z M5.9,14H42v0.8H5.9V14z M5.9,12.2v-0.6H42v0.6H5.9z M5.9,17.3v-0.8
		H42v0.8H5.9z M5.9,17.3"/>
</g>
</svg>
