<?xml version="1.0" encoding="utf-8"?>
<!-- Generator: Adobe Illustrator 19.0.0, SVG Export Plug-In . SVG Version: 6.00 Build 0)  -->
<svg version="1.1" id="Capa_1" xmlns="http://www.w3.org/2000/svg" xmlns:xlink="http://www.w3.org/1999/xlink" x="0px" y="0px"
	 viewBox="0 0 50.8 47.6" style="enable-background:new 0 0 50.8 47.6;" xml:space="preserve">
<style type="text/css">
	.st0{fill:#FFFFFF;}
</style>
<path id="XMLID_2_" class="st0" d="M8,15h3.2v1.5H8v5h1.9v1.5H8v5h3.2v1.5H8v5.1h1.9v1.5H8v5.9h36L8,4.9V15z M14.9,22.5
	c0-0.3,0.2-0.6,0.5-0.7c0.3-0.1,0.6,0,0.8,0.2l11.7,12.7c0.2,0.2,0.2,0.5,0.1,0.8c-0.1,0.3-0.4,0.4-0.7,0.4H15.6
	c-0.4,0-0.7-0.3-0.7-0.7V22.5z"/>
</svg>
