<?xml version="1.0" encoding="utf-8"?>
<!-- Generator: Adobe Illustrator 21.0.0, SVG Export Plug-In . SVG Version: 6.00 Build 0)  -->
<svg version="1.1" id="Layer_1" xmlns="http://www.w3.org/2000/svg" xmlns:xlink="http://www.w3.org/1999/xlink" x="0px" y="0px"
	 viewBox="0 0 48 50" style="enable-background:new 0 0 48 50;" xml:space="preserve">
<style type="text/css">
	.st0{fill:#606060;}
	.st1{fill:none;}
	.st2{fill:#FFFFFF;}
</style>
<path class="st0" d="M43.9,20.2c0,4.1-3.3,7.4-7.4,7.4c-4.1,0-7.4-3.3-7.4-7.4c0-4.1,3.3-7.4,7.4-7.4C40.6,12.9,43.9,16.2,43.9,20.2
	L43.9,20.2z M43.9,20.2"/>
<path class="st0" d="M20.6,21.6l-9.2,6.6c0.4-0.1,0.8-0.1,1.3-0.1c2.2,0,3.4,1,4.2,1.6c0.6,0.5,0.8,0.6,1.4,0.6s0.8-0.2,1.4-0.6
	c0.8-0.6,2-1.6,4.2-1.6c2.2,0,3.4,1,4.2,1.6c0.6,0.5,0.8,0.6,1.4,0.6c0.6,0,0.8-0.2,1.4-0.6c0.3-0.2,0.6-0.5,1-0.7l-6.5-10.9
	l-8.8-6.6L6.8,14.4l-1.3,5.8L16,18.1L20.6,21.6z M20.6,21.6"/>
<rect x="1.3" y="11.5" class="st1" width="45.3" height="25.2"/>
<path class="st0" d="M42.3,31.5c-0.6,0.5-0.8,0.6-1.4,0.6c-0.6,0-0.8-0.2-1.4-0.6c-0.8-0.6-2-1.6-4.2-1.6c-2.2,0-3.4,1-4.2,1.6
	c-0.6,0.5-0.8,0.6-1.4,0.6c-0.6,0-0.8-0.2-1.4-0.6c-0.8-0.6-2-1.6-4.2-1.6c-2.2,0-3.4,1-4.2,1.6c-0.6,0.5-0.8,0.6-1.4,0.6
	c-0.6,0-0.8-0.2-1.4-0.6c-0.8-0.6-2-1.6-4.2-1.6s-3.4,1-4.2,1.6c-0.6,0.5-0.8,0.6-1.4,0.6c-0.6,0-0.8-0.2-1.4-0.6
	c-0.8-0.6-2-1.6-4.2-1.6v4.5c0.6,0,0.8,0.2,1.4,0.6c0.8,0.6,2,1.6,4.2,1.6c2.2,0,3.4-1,4.2-1.6c0.6-0.5,0.8-0.6,1.4-0.6
	c0.6,0,0.8,0.2,1.4,0.6c0.8,0.6,2,1.6,4.2,1.6s3.4-1,4.2-1.6c0.6-0.5,0.8-0.6,1.4-0.6c0.6,0,0.8,0.2,1.4,0.6c0.8,0.6,2,1.6,4.2,1.6
	s3.4-1,4.2-1.6c0.6-0.5,0.8-0.6,1.4-0.6c0.6,0,0.8,0.2,1.4,0.6c0.8,0.6,2,1.6,4.2,1.6c2.2,0,3.4-1,4.2-1.6c0.6-0.5,0.8-0.6,1.4-0.6
	v-4.5C44.4,29.9,43.2,30.9,42.3,31.5L42.3,31.5z M42.3,31.5"/>
</svg>
