<?xml version="1.0" encoding="utf-8"?>
<!-- Generator: Adobe Illustrator 21.0.0, SVG Export Plug-In . SVG Version: 6.00 Build 0)  -->
<svg version="1.1" id="Layer_1" xmlns="http://www.w3.org/2000/svg" xmlns:xlink="http://www.w3.org/1999/xlink" x="0px" y="0px"
	 viewBox="0 0 48 50" style="enable-background:new 0 0 48 50;" xml:space="preserve">
<style type="text/css">
	.st0{fill:#606060;}
	.st1{fill:none;}
	.st2{fill:#FFFFFF;}
</style>
<g>
	<path class="st0" d="M45.5,14c0,10,0,20,0,30c-0.5,1.4-1.5,1.8-2.9,1.8c-10.6,0-21.1,0-31.7,0c-1.4,0-2.4-1-2.4-2.4
		c0-1.5,0-2.9,0-4.4c0-1.4,1-2.4,2.4-2.4c1.8,0,3.6,0,5.4,0c0.2,0,0.4,0,0.6,0c0-0.2,0-0.4,0-0.5c0-1.8,0.1-3.5,0-5.3
		c-0.1-1.4,1-2.5,2.5-2.5c1.7,0.1,3.4,0,5,0c0.2,0,0.3,0,0.5,0c0-0.2,0-0.4,0-0.6c0-1.6,0.1-3.3,0-4.9c-0.1-1.4,0.9-2.6,2.6-2.6
		c1.7,0,3.3,0,5,0c0.2,0,0.3,0,0.5,0c0-0.2,0-0.4,0-0.6c0-1.7,0-3.3,0-5c0-1.6,0.9-2.5,2.5-2.5c2.5,0,5,0,7.5,0
		c0.4,0,0.8,0.1,1.1,0.2C44.9,12.6,45.3,13.2,45.5,14z"/>
	<path class="st0" d="M1.4,33.6c0.3-0.4,0.5-0.8,0.8-1.1c9-8.9,17.9-17.8,26.9-26.7c0.5-0.5,1-0.8,1.7-0.6c1.1,0.2,1.5,1.5,0.8,2.3
		c-0.2,0.3-0.5,0.5-0.8,0.8C22.1,17,13.4,25.6,4.7,34.2c-0.2,0.2-0.4,0.5-0.3,0.8c0,3,0,6,0,9c0,1-0.5,1.6-1.4,1.7
		c-0.7,0.1-1.2-0.3-1.6-1.1C1.4,40.9,1.4,37.3,1.4,33.6z"/>
</g>
</svg>
