<?xml version="1.0" encoding="utf-8"?>
<!-- Generator: Adobe Illustrator 19.0.0, SVG Export Plug-In . SVG Version: 6.00 Build 0)  -->
<svg version="1.1" id="Capa_1" xmlns="http://www.w3.org/2000/svg" xmlns:xlink="http://www.w3.org/1999/xlink" x="0px" y="0px"
	 viewBox="0 0 41.3 38.7" style="enable-background:new 0 0 41.3 38.7;" xml:space="preserve">
<style type="text/css">
	.st0{fill:#FFFFFF;stroke:#FFFFFF;stroke-miterlimit:10;}
</style>
<g id="XMLID_2_">
	<path id="XMLID_4_" class="st0" d="M20.7,5.5C13,5.5,6.8,11.7,6.8,19.3S13,33.2,20.7,33.2S34.5,27,34.5,19.3S28.3,5.5,20.7,5.5z
		 M20.7,32.1c-7,0-12.8-5.7-12.8-12.8S13.6,6.6,20.7,6.6s12.8,5.7,12.8,12.8S27.7,32.1,20.7,32.1z"/>
	<path id="XMLID_3_" class="st0" d="M27.3,18.8h-6.1V13c0-0.3-0.2-0.5-0.5-0.5c-0.3,0-0.5,0.2-0.5,0.5v5.9H14
		c-0.3,0-0.5,0.2-0.5,0.5s0.2,0.5,0.5,0.5h6.1v6.4c0,0.3,0.2,0.5,0.5,0.5c0.3,0,0.5-0.2,0.5-0.5v-6.4h6.1c0.3,0,0.5-0.2,0.5-0.5
		S27.6,18.8,27.3,18.8z"/>
</g>
</svg>
