<?xml version="1.0" encoding="utf-8"?>
<!-- Generator: Adobe Illustrator 19.0.0, SVG Export Plug-In . SVG Version: 6.00 Build 0)  -->
<svg version="1.1" id="Capa_1" xmlns="http://www.w3.org/2000/svg" xmlns:xlink="http://www.w3.org/1999/xlink" x="0px" y="0px"
	 viewBox="0 0 28 38.7" style="enable-background:new 0 0 28 38.7;" xml:space="preserve">
<style type="text/css">
	.st0{fill:none;stroke:#FFFFFF;stroke-width:3;stroke-miterlimit:10;}
	.st1{fill:#606060;}
</style>
<polyline id="XMLID_20_" class="st0" points="16,12.1 25.3,19 16,26.6 "/>
<g id="XMLID_5_">
	<path id="Facebook_Places" class="st1" d="M26.1,10c-0.1-0.5-0.4-1-0.6-1.5c-2.4-5.7-7.5-7.7-11.7-7.7C8.1,0.8,2,4.6,1.2,12.3v1.6
		c0,0.1,0,0.7,0.1,1c0.5,3.7,3.4,7.6,5.5,11.3c2.3,3.9,4.8,7.8,7.2,11.7c1.5-2.5,3-5.1,4.4-7.6c0.4-0.7,0.9-1.4,1.2-2.1
		c0.3-0.5,0.8-0.9,1-1.3c2.3-4.3,6.1-8.6,6.1-12.8v-1.7C26.7,11.8,26.1,10.1,26.1,10z M13.8,18c-1.6,0-3.4-0.8-4.3-3.1
		c-0.1-0.4-0.1-1.1-0.1-1.2v-1c0-2.9,2.5-4.2,4.6-4.2c2.6,0,4.7,2.1,4.7,4.7C18.7,15.9,16.5,18,13.8,18z"/>
</g>
</svg>
