<?xml version="1.0" encoding="utf-8"?>
<!-- Generator: Adobe Illustrator 21.0.0, SVG Export Plug-In . SVG Version: 6.00 Build 0)  -->
<svg version="1.1" id="Layer_1" xmlns="http://www.w3.org/2000/svg" xmlns:xlink="http://www.w3.org/1999/xlink" x="0px" y="0px"
	 viewBox="0 0 48 50" style="enable-background:new 0 0 48 50;" xml:space="preserve">
<style type="text/css">
	.st0{fill:#606060;}
	.st1{fill:none;}
	.st2{fill:#FFFFFF;}
</style>
<g>
	<path class="st0" d="M11.8,18.5c2.9,0,5.3-2.4,5.3-5.3s-2.4-5.3-5.3-5.3s-5.3,2.4-5.3,5.3S8.9,18.5,11.8,18.5z"/>
	<path class="st0" d="M29.2,30h-9.1L15.9,20H9.1L3.8,34.2c-0.2,0.6-0.3,1.2-0.1,1.8H1.1v2.7h13.7h0.8h8l4.4,7.4l0,0
		c0.6,1,1.7,1.6,2.8,1.6c0.4,0,0.9-0.1,1.3-0.3c1.6-0.7,2.3-2.5,1.8-4.1L29.2,30z M10.4,36l1.6-2.5l1.3,2.5H10.4z"/>
	<path class="st0" d="M28.5,17.1c0,1.7,0.7,2.6,1.2,3.3c0.4,0.6,0.7,0.9,0.7,1.7H33c0-1.7-0.7-2.6-1.2-3.3c-0.4-0.6-0.7-0.9-0.7-1.7
		s0.2-1.2,0.7-1.7c0.5-0.7,1.2-1.6,1.2-3.3c0-1.7-0.7-2.6-1.2-3.3c-0.4-0.6-0.7-0.9-0.7-1.7c0-0.8,0.2-1.2,0.7-1.7
		C32.3,4.7,33,3.8,33,2.1h-2.7c0,0.8-0.2,1.2-0.7,1.7c-0.5,0.7-1.2,1.6-1.2,3.3c0,1.7,0.7,2.6,1.2,3.3c0.4,0.6,0.7,0.9,0.7,1.7
		c0,0.8-0.2,1.2-0.7,1.7C29.2,14.5,28.5,15.5,28.5,17.1z"/>
	<path class="st0" d="M39.8,2.1h-2.7c0,0.8-0.2,1.2-0.7,1.7c-0.5,0.7-1.2,1.6-1.2,3.3c0,1.7,0.7,2.6,1.2,3.3
		c0.4,0.6,0.7,0.9,0.7,1.7c0,0.8-0.2,1.2-0.7,1.7c-0.5,0.7-1.2,1.6-1.2,3.3s0.7,2.6,1.2,3.3c0.4,0.6,0.7,0.9,0.7,1.7h2.7
		c0-1.7-0.7-2.6-1.2-3.3C38.2,18.3,38,18,38,17.1s0.2-1.2,0.7-1.7c0.5-0.7,1.2-1.6,1.2-3.3c0-1.7-0.7-2.6-1.2-3.3
		C38.2,8.3,38,7.9,38,7.1c0-0.8,0.2-1.2,0.7-1.7C39.1,4.7,39.8,3.8,39.8,2.1z"/>
	<path class="st0" d="M46.6,12.1c0-1.7-0.7-2.6-1.2-3.3c-0.4-0.6-0.7-0.9-0.7-1.7c0-0.8,0.2-1.2,0.7-1.7c0.5-0.7,1.2-1.6,1.2-3.3
		h-2.7c0,0.8-0.2,1.2-0.7,1.7c-0.5,0.7-1.2,1.6-1.2,3.3c0,1.7,0.7,2.6,1.2,3.3c0.4,0.6,0.7,0.9,0.7,1.7c0,0.8-0.2,1.2-0.7,1.7
		c-0.5,0.7-1.2,1.6-1.2,3.3s0.7,2.6,1.2,3.3c0.4,0.6,0.7,0.9,0.7,1.7h2.7c0-1.7-0.7-2.6-1.2-3.3c-0.4-0.6-0.7-0.9-0.7-1.7
		s0.2-1.2,0.7-1.7C45.9,14.8,46.6,13.8,46.6,12.1z"/>
</g>
</svg>
