<?xml version="1.0" encoding="utf-8"?>
<!-- Generator: Adobe Illustrator 21.0.0, SVG Export Plug-In . SVG Version: 6.00 Build 0)  -->
<svg version="1.1" id="Layer_1" xmlns="http://www.w3.org/2000/svg" xmlns:xlink="http://www.w3.org/1999/xlink" x="0px" y="0px"
	 viewBox="0 0 48 50" style="enable-background:new 0 0 48 50;" xml:space="preserve">
<style type="text/css">
	.st0{fill:#606060;}
	.st1{fill:none;}
	.st2{fill:#FFFFFF;}
</style>
<path class="st0" d="M38.7,20.7h-0.9v-4.1c0-7.6-6-14-13.6-14.1c-0.2,0-0.6,0-0.8,0C15.8,2.6,9.8,8.9,9.8,16.6v4.1H8.9
	c-1.4,0-2.5,1.4-2.5,3.1v20.7c0,1.7,1.1,3.1,2.5,3.1h29.8c1.4,0,2.5-1.4,2.5-3.1V23.8C41.2,22.1,40.1,20.7,38.7,20.7L38.7,20.7z
	 M26.6,34.1v6.2c0,0.7-0.6,1.3-1.3,1.3h-3c-0.7,0-1.3-0.6-1.3-1.3v-6.2c-0.7-0.7-1.1-1.6-1.1-2.7c0-2,1.5-3.7,3.5-3.8
	c0.2,0,0.6,0,0.8,0c1.9,0.1,3.5,1.8,3.5,3.8C27.7,32.5,27.3,33.4,26.6,34.1L26.6,34.1z M32,20.7H15.6v-4.1c0-4.5,3.7-8.3,8.2-8.3
	c4.5,0,8.2,3.8,8.2,8.3V20.7z M32,20.7"/>
<rect x="6.5" y="2.4" class="st1" width="34.8" height="45.2"/>
</svg>
