<?xml version="1.0" encoding="utf-8"?>
<!-- Generator: Adobe Illustrator 21.0.0, SVG Export Plug-In . SVG Version: 6.00 Build 0)  -->
<svg version="1.1" id="Layer_1" xmlns="http://www.w3.org/2000/svg" xmlns:xlink="http://www.w3.org/1999/xlink" x="0px" y="0px"
	 viewBox="0 0 48 50" style="enable-background:new 0 0 48 50;" xml:space="preserve">
<style type="text/css">
	.st0{fill:#606060;}
	.st1{fill:none;}
	.st2{fill:#FFFFFF;}
</style>
<g>
	<g>
		<path class="st0" d="M45.8,16.2h-1.3v-2.3c0-2.5-2-4.6-4.6-4.6H21.6c-2.5,0-4.6,2-4.6,4.6v2.3h-1.3c-0.5,0-0.9,0.4-0.9,0.9v5.3
			c0,0.5,0.4,0.9,0.9,0.9H17v11.3c-0.5,0.5-0.8,1.1-0.8,1.9v1.8c0,1.4,1.1,2.5,2.5,2.5H19v2.5c0,0.4,0.3,0.7,0.7,0.7h3.4
			c0.4,0,0.7-0.3,0.7-0.7v-2.5h13.9v2.5c0,0.4,0.3,0.7,0.7,0.7h3.4c0.4,0,0.7-0.3,0.7-0.7v-2.5h0.3c1.4,0,2.5-1.1,2.5-2.5v-1.8
			c0-0.7-0.3-1.4-0.8-1.9V23.3h1.3c0.5,0,0.9-0.4,0.9-0.9v-5.3C46.8,16.6,46.4,16.2,45.8,16.2L45.8,16.2z M41.7,16.6v11.2H32V16.6
			H41.7z M25.9,11.7h9.7c0.7,0,1.2,0.5,1.2,1.2c0,0.7-0.5,1.2-1.2,1.2h-9.7c-0.7,0-1.2-0.5-1.2-1.2C24.7,12.2,25.3,11.7,25.9,11.7
			L25.9,11.7z M19.8,16.6h9.7v11.2h-9.7V16.6z M24.2,32.8c0,0.7-0.5,1.2-1.2,1.2h-2c-0.7,0-1.2-0.5-1.2-1.2v-1.3
			c0-0.7,0.5-1.2,1.2-1.2h2c0.7,0,1.2,0.5,1.2,1.2V32.8z M37.4,32.8v-1.3c0-0.7,0.5-1.2,1.2-1.2h2c0.7,0,1.2,0.5,1.2,1.2v1.3
			c0,0.7-0.5,1.2-1.2,1.2h-2C37.9,34,37.4,33.4,37.4,32.8L37.4,32.8z M37.4,32.8"/>
	</g>
	<circle class="st0" cx="7.9" cy="10.4" r="6.7"/>
	<rect x="6.8" y="14.3" class="st0" width="2.2" height="29.7"/>
	<path class="st0" d="M7.9,44.2L7.9,44.2c-1.5,0-2.7-1.2-2.7-2.7v0c0-1.5,1.2-2.7,2.7-2.7h0c1.5,0,2.7,1.2,2.7,2.7v0
		C10.6,43,9.3,44.2,7.9,44.2z"/>
</g>
</svg>
